<mxfile host="app.diagrams.net" modified="2024-03-15T10:44:38.906Z" agent="Mozilla/5.0 (Windows NT 10.0; Win64; x64) AppleWebKit/537.36 (KHTML, like Gecko) Chrome/122.0.0.0 Safari/537.36" etag="3eFs7Y6vwN4LJKpih9qw" version="24.0.7" type="device">
  <diagram name="PÃ¡gina-1" id="SlJShpsi1j3gaMoGlSiY">
    <mxGraphModel dx="1120" dy="460" grid="1" gridSize="10" guides="1" tooltips="1" connect="1" arrows="1" fold="1" page="1" pageScale="1" pageWidth="827" pageHeight="1169" math="0" shadow="0">
      <root>
        <mxCell id="0" />
        <mxCell id="1" parent="0" />
        <mxCell id="k0nVLyPXT_qbtcBdRxdq-1" value="" style="rounded=0;whiteSpace=wrap;html=1;gradientColor=#000000;fillColor=#003366;gradientDirection=east;" parent="1" vertex="1">
          <mxGeometry x="20" y="40" width="790" height="540" as="geometry" />
        </mxCell>
        <mxCell id="k0nVLyPXT_qbtcBdRxdq-3" value="" style="rounded=0;whiteSpace=wrap;html=1;gradientColor=#003366;fillColor=#000000;gradientDirection=west;" parent="1" vertex="1">
          <mxGeometry x="20" y="80" width="790" height="160" as="geometry" />
        </mxCell>
        <mxCell id="k0nVLyPXT_qbtcBdRxdq-5" value="" style="ellipse;whiteSpace=wrap;html=1;aspect=fixed;" parent="1" vertex="1">
          <mxGeometry x="50.5" y="90" width="132.5" height="132.5" as="geometry" />
        </mxCell>
        <mxCell id="k0nVLyPXT_qbtcBdRxdq-6" value="" style="shape=actor;whiteSpace=wrap;html=1;" parent="1" vertex="1">
          <mxGeometry x="96.75" y="126.25" width="40" height="60" as="geometry" />
        </mxCell>
        <mxCell id="k0nVLyPXT_qbtcBdRxdq-11" value="Text" style="text;html=1;align=center;verticalAlign=middle;whiteSpace=wrap;rounded=0;" parent="1" vertex="1">
          <mxGeometry x="530" y="141.25" width="60" height="30" as="geometry" />
        </mxCell>
        <mxCell id="k0nVLyPXT_qbtcBdRxdq-12" value="" style="rounded=0;whiteSpace=wrap;html=1;" parent="1" vertex="1">
          <mxGeometry x="370" y="120" width="350" height="70" as="geometry" />
        </mxCell>
        <mxCell id="k0nVLyPXT_qbtcBdRxdq-13" value="nome" style="text;html=1;align=center;verticalAlign=middle;whiteSpace=wrap;rounded=0;" parent="1" vertex="1">
          <mxGeometry x="515" y="140" width="60" height="30" as="geometry" />
        </mxCell>
        <mxCell id="k0nVLyPXT_qbtcBdRxdq-14" value="Redes sociais" style="text;html=1;align=center;verticalAlign=middle;whiteSpace=wrap;rounded=0;strokeColor=#FFFFFF;" parent="1" vertex="1">
          <mxGeometry x="344" y="50" width="140" height="30" as="geometry" />
        </mxCell>
        <mxCell id="k0nVLyPXT_qbtcBdRxdq-16" value="" style="shape=partialRectangle;whiteSpace=wrap;html=1;bottom=0;right=0;fillColor=none;strokeColor=#FFFFFF;" parent="1" vertex="1">
          <mxGeometry x="340" y="100" width="120" height="60" as="geometry" />
        </mxCell>
        <mxCell id="k0nVLyPXT_qbtcBdRxdq-17" value="" style="shape=partialRectangle;whiteSpace=wrap;html=1;top=0;left=0;fillColor=none;strokeColor=#FFFFFF;" parent="1" vertex="1">
          <mxGeometry x="640" y="160" width="120" height="60" as="geometry" />
        </mxCell>
        <mxCell id="k0nVLyPXT_qbtcBdRxdq-18" value="" style="rounded=0;whiteSpace=wrap;html=1;glass=0;shadow=1;textShadow=1;gradientColor=none;" parent="1" vertex="1">
          <mxGeometry x="20" y="240" width="790" height="440" as="geometry" />
        </mxCell>
        <mxCell id="k0nVLyPXT_qbtcBdRxdq-20" value="" style="rounded=0;whiteSpace=wrap;html=1;" parent="1" vertex="1">
          <mxGeometry x="20" y="240" width="790" height="70" as="geometry" />
        </mxCell>
        <mxCell id="k0nVLyPXT_qbtcBdRxdq-21" value="Objetivo" style="text;html=1;align=center;verticalAlign=middle;whiteSpace=wrap;rounded=0;" parent="1" vertex="1">
          <mxGeometry x="384" y="265" width="60" height="30" as="geometry" />
        </mxCell>
        <mxCell id="k0nVLyPXT_qbtcBdRxdq-22" value="" style="whiteSpace=wrap;html=1;aspect=fixed;" parent="1" vertex="1">
          <mxGeometry x="70" y="320" width="150" height="150" as="geometry" />
        </mxCell>
        <mxCell id="k0nVLyPXT_qbtcBdRxdq-23" value="" style="whiteSpace=wrap;html=1;aspect=fixed;" parent="1" vertex="1">
          <mxGeometry x="70" y="490" width="150" height="150" as="geometry" />
        </mxCell>
        <mxCell id="k0nVLyPXT_qbtcBdRxdq-24" value="" style="whiteSpace=wrap;html=1;shape=mxgraph.basic.oval_callout" parent="1" vertex="1">
          <mxGeometry x="680" y="620" width="100" height="50" as="geometry" />
        </mxCell>
        <mxCell id="k0nVLyPXT_qbtcBdRxdq-25" value="mensagem" style="text;html=1;align=center;verticalAlign=middle;whiteSpace=wrap;rounded=0;" parent="1" vertex="1">
          <mxGeometry x="705" y="630" width="50" height="25" as="geometry" />
        </mxCell>
        <mxCell id="k0nVLyPXT_qbtcBdRxdq-26" value="Text" style="text;html=1;align=center;verticalAlign=middle;whiteSpace=wrap;rounded=0;" parent="1" vertex="1">
          <mxGeometry x="115" y="370" width="60" height="30" as="geometry" />
        </mxCell>
        <mxCell id="k0nVLyPXT_qbtcBdRxdq-27" value="Text" style="text;html=1;align=center;verticalAlign=middle;whiteSpace=wrap;rounded=0;" parent="1" vertex="1">
          <mxGeometry x="115" y="555" width="60" height="30" as="geometry" />
        </mxCell>
        <mxCell id="k0nVLyPXT_qbtcBdRxdq-29" value="" style="whiteSpace=wrap;html=1;aspect=fixed;" parent="1" vertex="1">
          <mxGeometry x="563" y="322.5" width="225" height="225" as="geometry" />
        </mxCell>
        <mxCell id="k0nVLyPXT_qbtcBdRxdq-30" value="tabela" style="text;html=1;align=center;verticalAlign=middle;whiteSpace=wrap;rounded=0;" parent="1" vertex="1">
          <mxGeometry x="650" y="420" width="60" height="30" as="geometry" />
        </mxCell>
        <mxCell id="k0nVLyPXT_qbtcBdRxdq-31" value="" style="shape=actor;whiteSpace=wrap;html=1;" parent="1" vertex="1">
          <mxGeometry x="439" y="380" width="76" height="120" as="geometry" />
        </mxCell>
      </root>
    </mxGraphModel>
  </diagram>
</mxfile>
